<svg xmlns="http://www.w3.org/2000/svg" width="512" height="512" viewBox="0 0 512 512" fill="none">
  <defs>
    <linearGradient id="wkg" x1="0.1" y1="0.05" x2="0.9" y2="1">
      <stop offset="0" stop-color="#f9b54d"/>
      <stop offset="0.5" stop-color="#f0931a"/>
      <stop offset="1" stop-color="#d9790b"/>
    </linearGradient>
    <radialGradient id="wkhl" cx="0.3" cy="0.2" r="0.95">
      <stop offset="0" stop-color="#ffffff" stop-opacity="0.34"/>
      <stop offset="0.55" stop-color="#ffffff" stop-opacity="0"/>
    </radialGradient>
    <filter id="wksh" x="-25%" y="-25%" width="150%" height="150%">
      <feDropShadow dx="0" dy="9" stdDeviation="11" flood-color="#7a3d00" flood-opacity="0.20"/>
    </filter>
  </defs>
  <rect x="16" y="16" width="480" height="480" rx="116" fill="url(#wkg)"/>
  <rect x="16" y="16" width="480" height="480" rx="116" fill="url(#wkhl)"/>
  <rect x="17.5" y="17.5" width="477" height="477" rx="114.5" fill="none" stroke="#ffffff" stroke-opacity="0.28" stroke-width="3"/>
  <g fill="#ffffff" filter="url(#wksh)" transform="translate(0 -6)">
    <ellipse cx="151" cy="246" rx="37" ry="51" transform="rotate(-20 151 246)"/>
    <ellipse cx="216" cy="197" rx="36" ry="55" transform="rotate(-7 216 197)"/>
    <ellipse cx="296" cy="197" rx="36" ry="55" transform="rotate(7 296 197)"/>
    <ellipse cx="361" cy="246" rx="37" ry="51" transform="rotate(20 361 246)"/>
    <path d="M256 266 C324 266 376 311 376 363 C376 416 333 449 296 459 C273 465 239 465 216 459 C179 449 136 416 136 363 C136 311 188 266 256 266 Z"/>
  </g>
</svg>
